<svg width="251" height="260" viewBox="0 0 251 260" fill="none" xmlns="http://www.w3.org/2000/svg">
<path d="M137.305 255.569C137.898 252.529 138.059 248.904 138.227 245.889C138.371 243.282 138.687 240.577 138.687 238.053C138.687 232.061 138.687 226.069 138.687 220.077C138.687 213.778 138.687 207.478 138.687 201.179C138.687 195.411 137.305 189.369 137.305 183.663C137.305 156.697 135 129.94 135 103" stroke="black" stroke-width="7" stroke-linecap="round" stroke-linejoin="round"/>
<ellipse cx="135" cy="103" rx="8" ry="6" fill="black"/>
<path d="M136.276 104.72C151.438 110.637 166.903 115.218 182.242 120.869C197.942 126.653 216.17 128.031 230.836 135.364" stroke="black" stroke-linecap="round" stroke-linejoin="round"/>
<path d="M136.276 100.342C141.059 100.342 145.172 99.4667 149.896 99.4667C154.294 99.4667 158.144 97.8772 162.348 97.7155C171.556 97.3614 182.034 95.5923 191.047 93.5323C195.612 92.4888 201.497 93.9957 205.834 92.0244C209.079 90.5495 212.815 91.4242 215.951 90.0301C218.699 88.8088 223.468 89.3385 226.458 88.9113C229.74 88.4425 232.951 87.3795 236.089 86.3333" stroke="black" stroke-linecap="round" stroke-linejoin="round"/>
<path d="M136.276 102.093C144.222 98.7987 148.429 93.4216 154.857 88.279C159.655 84.4404 166.294 77.7587 172.611 74.9511C174.173 74.2571 175.374 72.3993 177.038 71.4489C179.046 70.3015 180.66 68.8743 182.68 67.7521C186.644 65.55 189.679 61.3214 193.673 59.1424C197.257 57.1877 200.88 54.2133 203.888 51.5057C206.136 49.4824 209.322 48.8094 210.698 46.0578" stroke="black" stroke-linecap="round" stroke-linejoin="round"/>
<path d="M132.773 102.969C132.773 88.8966 135.4 74.7731 135.4 60.5044C135.4 47.3381 133.649 35.4309 133.649 22.4177" stroke="black" stroke-linecap="round" stroke-linejoin="round"/>
<path d="M132.774 105.596C130.676 100.537 126.983 97.0099 123.58 92.8513C120.854 89.5193 118.867 85.8438 116.478 82.3933C113.281 77.7743 110.241 73.0048 107.042 68.3844C104.706 65.0108 101.17 59.8794 99.5024 56.1266C96.9106 50.2952 92.0969 46.2946 89.1903 40.8044C86.6475 36.0014 80.829 32.3509 78.4891 27.6711" stroke="black" stroke-linecap="round" stroke-linejoin="round"/>
<path d="M132.773 102.969C116.486 90.9926 99.6 80.0853 84.2288 67.5089C78.5305 62.8467 69.8153 60.2458 64.8206 55.2511C62.6289 53.0594 59.8401 53.2863 57.6703 51.1165C56.7504 50.1967 51.7193 47.8089 50.4713 47.8089" stroke="black" stroke-linecap="round" stroke-linejoin="round"/>
<path d="M132.774 105.596C127.751 105.473 124.274 103.603 119.835 102.288C114.789 100.793 109.364 101.751 104.367 99.4666C99.8608 97.4068 93.8604 96.5711 88.9957 95.2834C83.3551 93.7903 77.2832 91.404 71.4846 90.7597C63.3713 89.8583 55.2945 88.1348 47.4068 86.382C41.4603 85.0605 34.9432 85.4578 28.5824 85.4578" stroke="black" stroke-linecap="round" stroke-linejoin="round"/>
<path d="M133.649 103.844C129.064 104.739 123.285 106.233 118.765 106.471C114.082 106.718 109.922 108.422 105.534 109.049C99.479 109.914 93.3363 110.105 87.4392 111.919C83.013 113.281 76.643 115.227 71.9711 115.227C68.319 115.227 64.9949 116.776 61.3671 116.978C59.6833 117.071 55.9136 117.457 54.4113 118.291C49.9439 120.773 44.3758 119.831 39.9646 122.037C37.4899 123.274 32.4694 124.858 29.8957 124.858C26.2902 124.858 22.6258 127.484 18.9513 127.484" stroke="black" stroke-linecap="round" stroke-linejoin="round"/>
<path d="M130.147 109.098C126.215 109.982 122.503 112.364 119.64 115.227C116.496 118.371 112.362 119.848 109.133 122.718C103.241 127.955 94.7635 130.767 88.6066 136.24C85.3256 139.156 80.6328 141.182 76.7379 143.244C72.2421 145.625 65.6167 147.779 61.8535 151.124C59.5604 153.163 55.9265 154.843 53.0979 156.183C51.041 157.158 44.3877 159.789 43.4668 161.631" stroke="black" stroke-linecap="round" stroke-linejoin="round"/>
<path d="M133.649 103.844C136.069 114.598 143.698 120.596 150.771 128.311C154.401 132.271 159.22 135.642 162.932 139.353C165.063 141.485 167.505 145.302 170.033 146.747C173.008 148.447 175.228 151.163 177.621 153.557C179.771 155.706 183.862 157.258 185.501 159.88C186.814 161.981 191.084 163.611 192.992 165.328C195.344 167.445 197.847 168.918 200.191 171.262" stroke="black" stroke-linecap="round" stroke-linejoin="round"/>
<path d="M134.525 102.969C136.137 95.801 136.148 88.4991 138.221 81.761C140.677 73.7813 145.234 66.175 146.734 57.9264C148.074 50.5535 151.535 41.53 155.1 35.1133C157.781 30.2876 160.055 24.7669 162.542 19.7911" stroke="black" stroke-linecap="round" stroke-linejoin="round"/>
<ellipse cx="77.8319" cy="26.4229" rx="6.5" ry="10" transform="rotate(130.261 77.8319 26.4229)" fill="#4200FF"/>
<ellipse cx="77.8319" cy="26.4229" rx="6.5" ry="10" transform="rotate(130.261 77.8319 26.4229)" fill="#4200FF"/>
<ellipse cx="203.832" cy="173.423" rx="6.5" ry="10" transform="rotate(130.261 203.832 173.423)" fill="#4200FF"/>
<ellipse cx="164.985" cy="19.7733" rx="6.5" ry="10" transform="rotate(-156.18 164.985 19.7733)" fill="#4200FF"/>
<ellipse cx="40.8318" cy="162.423" rx="6.5" ry="10" transform="rotate(73.8845 40.8318 162.423)" fill="#4200FF"/>
<path d="M139.539 10.6665C139.76 16.1849 137.031 20.7749 133.444 20.9184C129.857 21.0619 126.77 16.7047 126.549 11.1863C126.329 5.66788 129.057 1.07794 132.644 0.934394C136.231 0.790849 139.318 5.14805 139.539 10.6665Z" fill="#FAFF00"/>
<path d="M229.829 141.621C224.4 140.603 220.537 136.917 221.198 133.389C221.86 129.86 226.797 127.825 232.225 128.844C237.654 129.862 241.517 133.548 240.856 137.076C240.194 140.604 235.257 142.639 229.829 141.621Z" fill="#FAFF00"/>
<path d="M27.1096 75.9143C32.3102 77.7731 35.5467 82.0204 34.3384 85.4008C33.1302 88.7812 27.9348 90.0147 22.7341 88.1558C17.5335 86.297 14.297 82.0497 15.5053 78.6693C16.7135 75.2889 21.909 74.0554 27.1096 75.9143Z" fill="#FAFF00"/>
<ellipse cx="49.7971" cy="49.4935" rx="6.5" ry="10" transform="rotate(-67.7809 49.7971 49.4935)" fill="#FF00F5"/>
<ellipse cx="214.927" cy="42.9266" rx="6.5" ry="10" transform="rotate(-123.343 214.927 42.9266)" fill="#FF00F5"/>
<ellipse cx="238.604" cy="87.4844" rx="6.5" ry="10" transform="rotate(-109.652 238.604 87.4844)" fill="#FF00F5"/>
<ellipse cx="11.6035" cy="129.484" rx="6.5" ry="10" transform="rotate(-109.652 11.6035 129.484)" fill="#FF00F5"/>
</svg>
